<?xml version="1.0" encoding="UTF-8"?>
<svg version="1.1" xmlns="http://www.w3.org/2000/svg" width="109" height="109">
<path d="M0 0 C6.15234375 -0.09765625 6.15234375 -0.09765625 8 0 C9 1 9 1 9.1875 4.4375 C9 8 9 8 7 10 C6.737511 12.91343568 6.737511 12.91343568 6.83984375 16.3359375 C6.85080078 17.62886719 6.86175781 18.92179687 6.87304688 20.25390625 C6.89377165 21.62761584 6.91525999 23.00131411 6.9375 24.375 C7.06688476 33.64794921 6.98251745 42.76976423 6 52 C6.66 52 7.32 52 8 52 C7.84660156 52.79664063 7.69320313 53.59328125 7.53515625 54.4140625 C6.89038893 58.73447415 6.64957112 63.01537398 6.4375 67.375 C6.39431641 68.20644531 6.35113281 69.03789063 6.30664062 69.89453125 C6.20138195 71.92953228 6.10026928 73.96474703 6 76 C11.71084339 76.049623 17.42155985 76.08582503 23.13256836 76.10986328 C25.07334582 76.1198898 27.0141083 76.13351443 28.95483398 76.15087891 C31.75247916 76.17527489 34.54992371 76.18651681 37.34765625 76.1953125 C38.63870018 76.21079636 38.63870018 76.21079636 39.95582581 76.22659302 C47.41879285 76.22796732 53.45037657 74.8079206 60 71 C60.99 69.515 60.99 69.515 62 68 C62.99 68 63.98 68 65 68 C65.29003906 67.02160156 65.29003906 67.02160156 65.5859375 66.0234375 C66.98640448 61.3228602 68.41208726 56.64159109 70 52 C69.34 52 68.68 52 68 52 C68 51.34 68 50.68 68 50 C68.66 50 69.32 50 70 50 C68.08567691 41.26704038 64.29232533 35.29232533 58 29 C56.00239695 28.65259077 54.00212229 28.32033957 52 28 C49.625 26.9375 49.625 26.9375 48 26 C48 25.34 48 24.68 48 24 C40.74 24 33.48 24 26 24 C26 34.89 26 45.78 26 57 C28.97 57 31.94 57 35 57 C35 49.08 35 41.16 35 33 C41.27 32.67 47.54 32.34 54 32 C54.495 33.98 54.495 33.98 55 36 C55.99 36 56.98 36 58 36 C62.31744403 42.88092642 62.88648817 48.9494505 62 57 C60.9765625 59.89453125 60.9765625 59.89453125 60 62 C59.34 62 58.68 62 58 62 C57.90763062 62.62428391 57.81526123 63.24856781 57.72009277 63.89176941 C57 66 57 66 53.47851562 67.73168945 C49.04839979 69.18637549 44.97344865 69.38904068 40.34375 69.29296875 C39.16214294 69.28660149 39.16214294 69.28660149 37.95666504 69.28010559 C35.4707441 69.26347617 32.98567081 69.22585614 30.5 69.1875 C28.80209514 69.17243271 27.10417742 69.15874791 25.40625 69.14648438 C21.27051281 69.11362466 17.1353995 69.06195474 13 69 C12.97480315 64.59326518 12.95691201 60.18657133 12.94506836 55.77978516 C12.94011786 54.28856677 12.93335574 52.79735301 12.92456055 51.30615234 C12.86441959 40.82747438 13.21554748 30.44993349 14 20 C13.34 20 12.68 20 12 20 C12 19.34 12 18.68 12 18 C12.66 18 13.32 18 14 18 C13.855625 16.700625 13.71125 15.40125 13.5625 14.0625 C13.44068359 12.96615234 13.44068359 12.96615234 13.31640625 11.84765625 C13.18113386 9.98859771 13.18113386 9.98859771 12 9 C11.92820036 7.48071962 11.91607993 5.95832518 11.9375 4.4375 C11.94652344 3.61121094 11.95554687 2.78492188 11.96484375 1.93359375 C11.97644531 1.29550781 11.98804688 0.65742187 12 0 C14.64 0 17.28 0 20 0 C20.02689216 1.47906892 20.04634621 2.95827483 20.0625 4.4375 C20.07410156 5.26121094 20.08570312 6.08492187 20.09765625 6.93359375 C20 9 20 9 19 10 C18.9064081 11.71865409 18.88255389 13.44115744 18.88647461 15.16235352 C18.88658791 16.81395226 18.88658791 16.81395226 18.88670349 18.49891663 C18.89186478 19.6968132 18.89702606 20.89470978 18.90234375 22.12890625 C18.9037587 23.34827377 18.90517365 24.5676413 18.90663147 25.82395935 C18.91225033 29.7368307 18.92480604 33.64964581 18.9375 37.5625 C18.94251257 40.20768147 18.9470759 42.85286383 18.95117188 45.49804688 C18.96137704 51.99873726 18.98094879 58.49930533 19 65 C32.86 65.495 32.86 65.495 47 66 C47 65.34 47 64.68 47 64 C48.65 64 50.3 64 52 64 C52.309375 63.38125 52.61875 62.7625 52.9375 62.125 C53.625 60.75 54.3125 59.375 55 58 C55.66 58 56.32 58 57 58 C56.505 56.02 56.505 56.02 56 54 C56.66 54 57.32 54 58 54 C57.67 50.7 57.34 47.4 57 44 C56.34 44 55.68 44 55 44 C54.15766927 42.87591405 53.35082222 41.72509983 52.5625 40.5625 C48.53453259 35.77431362 48.53453259 35.77431362 38 36 C38 43.92 38 51.84 38 60 C33.05 60 28.1 60 23 60 C22.41573344 50.0048685 21.89568685 40.01361736 21.8125 30 C21.79960937 29.25379395 21.78671875 28.50758789 21.7734375 27.73876953 C21.76652139 23.99628974 21.90876021 21.17405565 24 18 C24.66 18 25.32 18 26 18 C26 18.66 26 19.32 26 20 C26.589021 19.98952637 27.17804199 19.97905273 27.78491211 19.96826172 C30.50239646 19.92620446 33.21981196 19.9005182 35.9375 19.875 C37.32678711 19.84986328 37.32678711 19.84986328 38.74414062 19.82421875 C46.32660862 19.77100845 53.22758593 20.39271668 60 24 C60 24.66 60 25.32 60 26 C60.598125 26.28875 61.19625 26.5775 61.8125 26.875 C64 28 64 28 67 30 C67 30.66 67 31.32 67 32 C67.66 32 68.32 32 69 32 C69 32.66 69 33.32 69 34 C69.66 34 70.32 34 71 34 C74.69160247 42.02522276 76.49785588 50.94819087 73.94140625 59.5703125 C72.73768288 62.45515662 71.4618791 65.23811077 70 68 C69.34 68 68.68 68 68 68 C67.773125 68.53625 67.54625 69.0725 67.3125 69.625 C63.17117553 77.11882524 63.17117553 77.11882524 58.70158386 78.93281555 C51.82225066 80.82032166 45.54112948 81.40438824 38.42578125 81.29296875 C37.49326538 81.28994751 36.56074951 81.28692627 35.59997559 81.28381348 C32.17070182 81.2683103 28.74158784 81.22642906 25.3125 81.1875 C17.619375 81.125625 9.92625 81.06375 2 81 C2 56.91 2 32.82 2 8 C1.34 8 0.68 8 0 8 C0 5.36 0 2.72 0 0 Z M3 2 C2.67 3.32 2.34 4.64 2 6 C3.32 6 4.64 6 6 6 C6 4.68 6 3.36 6 2 C5.01 2 4.02 2 3 2 Z M14 2 C14 3.32 14 4.64 14 6 C15.32 6 16.64 6 18 6 C18 4.68 18 3.36 18 2 C16.68 2 15.36 2 14 2 Z " fill="#4A3DB0" transform="translate(9,3)"/>
<path d="M0 0 C29.65794201 -0.77033616 29.65794201 -0.77033616 41 4 C41.7321875 4.26554688 42.464375 4.53109375 43.21875 4.8046875 C55.03235009 9.72702087 64.6548625 21.65874661 69.4375 33.25 C72.53014091 43.41722289 73.14818601 58.07753907 69 68 C68.34 68 67.68 68 67 68 C67.08378906 68.86625 67.16757813 69.7325 67.25390625 70.625 C66.71743868 77.75589204 59.71936284 84.73283728 54.5 89.375 C53.35144301 90.2736395 52.18358434 91.14802334 51 92 C50.278125 92.53367187 49.55625 93.06734375 48.8125 93.6171875 C44.31555185 96.79239751 40.44149921 98.81276381 35 100 C33.80568359 100.34144043 32.61136719 100.68288086 31.38085938 101.03466797 C26.71409043 102.20256353 22.25794251 102.25461333 17.46875 102.1953125 C16.15396667 102.19106766 16.15396667 102.19106766 14.81262207 102.18673706 C12.04160301 102.17563492 9.27091965 102.15054954 6.5 102.125 C4.6093797 102.11495729 2.71875429 102.10583371 0.828125 102.09765625 C-3.78137729 102.07572835 -8.39063194 102.04126845 -13 102 C-13 102.66 -13 103.32 -13 104 C-15.64 104 -18.28 104 -21 104 C-21 101.36 -21 98.72 -21 96 C-18.03 96 -15.06 96 -12 96 C-12 96.66 -12 97.32 -12 98 C-6.6103082 97.90582682 -1.22103223 97.79959751 4.16821289 97.68261719 C5.9982264 97.64454232 7.82830927 97.60965362 9.65844727 97.578125 C12.30249685 97.53200367 14.94607758 97.47409169 17.58984375 97.4140625 C18.39646957 97.40251129 19.2030954 97.39096008 20.03416443 97.37905884 C32.80157787 97.05387625 43.64154534 92.86590441 53 84 C53.33 83.34 53.66 82.68 54 82 C54.66 82 55.32 82 56 82 C56.28875 81.4225 56.5775 80.845 56.875 80.25 C57.91666667 78.16666667 58.95833333 76.08333333 60 74 C60.66 74 61.32 74 62 74 C62.33 72.02 62.66 70.04 63 68 C62.34 68 61.68 68 61 68 C61.99 66.02 61.99 66.02 63 64 C63 64.66 63 65.32 63 66 C63.66 66 64.32 66 65 66 C65.33638666 63.41703099 65.6692165 60.83368737 66 58.25 C66.09539062 57.52039062 66.19078125 56.79078125 66.2890625 56.0390625 C66.72021548 52.65143196 67 49.42145141 67 46 C66.34 46 65.68 46 65 46 C65.33 43.36 65.66 40.72 66 38 C65.01 38 64.02 38 63 38 C63 37.34 63 36.68 63 36 C63.66 36 64.32 36 65 36 C62.01126708 30.311445 59.14580029 24.94306958 55 20 C55 19.34 55 18.68 55 18 C54.030625 17.7525 53.06125 17.505 52.0625 17.25 C51.051875 16.8375 50.04125 16.425 49 16 C48.125 13.875 48.125 13.875 48 12 C47.01 11.87625 47.01 11.87625 46 11.75 C42.74137997 10.93534499 40.18529813 9.64588579 37.2578125 8.03515625 C30.13607611 4.77000029 23.30129289 4.59545226 15.5625 4.375 C13.8928418 4.31699219 13.8928418 4.31699219 12.18945312 4.2578125 C9.45979524 4.16409034 6.73013437 4.07837706 4 4 C4 6.64 4 9.28 4 12 C4.76554199 11.97905273 5.53108398 11.95810547 6.31982422 11.93652344 C9.83807885 11.85261638 13.35612203 11.80110404 16.875 11.75 C18.68097656 11.69972656 18.68097656 11.69972656 20.5234375 11.6484375 C29.20145431 11.55411123 35.49428045 13.01188061 43.08544922 17.13183594 C45.10500456 18.20649014 45.10500456 18.20649014 48 18 C48 19.32 48 20.64 48 22 C49.64488294 23.68816933 51.31337542 25.35353315 53 27 C54.3125 29.8125 54.3125 29.8125 55 32 C55.66 32 56.32 32 57 32 C61.25156517 45.8175868 61.77927555 58.9720009 55 72 C54.34 72 53.68 72 53 72 C53 73.98 53 75.96 53 78 C52.1028125 78.2165625 52.1028125 78.2165625 51.1875 78.4375 C49.43849596 78.8872439 47.71322977 79.42892341 46 80 C46.33 81.32 46.66 82.64 47 84 C46.113125 84.103125 45.22625 84.20625 44.3125 84.3125 C40.88176473 85.02453939 38.94075984 86.1620251 36 88 C30.688598 90.26496195 25.89274445 90.26119908 20.2265625 90.1953125 C19.3028183 90.1924826 18.3790741 90.18965271 17.42733765 90.18673706 C14.49309024 90.17559179 11.5591543 90.15049765 8.625 90.125 C6.62891068 90.11496289 4.63281654 90.10583832 2.63671875 90.09765625 C-2.24230649 90.07567097 -7.12110054 90.04118017 -12 90 C-12 90.66 -12 91.32 -12 92 C-14.97 92 -17.94 92 -21 92 C-21 89.36 -21 86.72 -21 84 C-18.03 84 -15.06 84 -12 84 C-12 84.66 -12 85.32 -12 86 C-6.59184268 85.9307921 -1.18443423 85.84266686 4.22314453 85.73754883 C6.05997358 85.70444262 7.89690086 85.67636683 9.73388672 85.65356445 C12.38551411 85.61975369 15.03625283 85.56742707 17.6875 85.51171875 C18.49928711 85.50532883 19.31107422 85.4989389 20.14746094 85.49235535 C27.09318511 85.31613915 32.92468551 83.52788775 38.875 79.8125 C42 78 42 78 44 78 C43.67 76.68 43.34 75.36 43 74 C44.65 74 46.3 74 48 74 C48.495 72.02 48.495 72.02 49 70 C49.66 70 50.32 70 51 70 C53.40656211 62.74822618 54.89644911 55.55607786 56 48 C55.34 48 54.68 48 54 48 C54.0825 47.21625 54.165 46.4325 54.25 45.625 C53.95216523 41.30639577 52.59291102 38.10875442 50.875 34.171875 C50 32 50 32 50 30 C48.515 29.505 48.515 29.505 47 29 C45.824375 27.515 45.824375 27.515 44.625 26 C42.31112431 22.82791788 42.31112431 22.82791788 39.1875 22.125 C38.465625 22.08375 37.74375 22.0425 37 22 C37 21.34 37 20.68 37 20 C36.34 20 35.68 20 35 20 C35 19.34 35 18.68 35 18 C27.5209627 16.87625576 20.05235745 16.67159238 12.5 16.4375 C11.200625 16.39431641 9.90125 16.35113281 8.5625 16.30664062 C5.37510593 16.20117538 2.18756569 16.10014411 -1 16 C-0.67 10.72 -0.34 5.44 0 0 Z M-18 86 C-18 87.32 -18 88.64 -18 90 C-17.01 90 -16.02 90 -15 90 C-15 88.68 -15 87.36 -15 86 C-15.99 86 -16.98 86 -18 86 Z M-19 98 C-19 99.32 -19 100.64 -19 102 C-17.35 102 -15.7 102 -14 102 C-14.33 101.01 -14.66 100.02 -15 99 C-15.99 99.33 -16.98 99.66 -18 100 C-18.33 99.34 -18.66 98.68 -19 98 Z " fill="#1A9FB3" transform="translate(32,3)"/>
<path d="M0 0 C0.66 0 1.32 0 2 0 C6 5.41176471 6 5.41176471 6 8 C6.66 8 7.32 8 8 8 C12.25156517 21.8175868 12.77927555 34.9720009 6 48 C5.34 48 4.68 48 4 48 C4 49.98 4 51.96 4 54 C3.401875 54.144375 2.80375 54.28875 2.1875 54.4375 C0.43849596 54.8872439 -1.28677023 55.42892341 -3 56 C-2.505 57.98 -2.505 57.98 -2 60 C-3.3303125 60.1546875 -3.3303125 60.1546875 -4.6875 60.3125 C-8.11823527 61.02453939 -10.05924016 62.1620251 -13 64 C-18.311402 66.26496195 -23.10725555 66.26119908 -28.7734375 66.1953125 C-29.6971817 66.1924826 -30.6209259 66.18965271 -31.57266235 66.18673706 C-34.50690976 66.17559179 -37.4408457 66.15049765 -40.375 66.125 C-42.37108932 66.11496289 -44.36718346 66.10583832 -46.36328125 66.09765625 C-51.24230649 66.07567097 -56.12110054 66.04118017 -61 66 C-61 66.66 -61 67.32 -61 68 C-63.97 68 -66.94 68 -70 68 C-70 65.36 -70 62.72 -70 60 C-67.03 60 -64.06 60 -61 60 C-61 60.66 -61 61.32 -61 62 C-55.59184268 61.9307921 -50.18443423 61.84266686 -44.77685547 61.73754883 C-42.94002642 61.70444262 -41.10309914 61.67636683 -39.26611328 61.65356445 C-36.61448589 61.61975369 -33.96374717 61.56742707 -31.3125 61.51171875 C-30.50071289 61.50532883 -29.68892578 61.4989389 -28.85253906 61.49235535 C-21.90681489 61.31613915 -16.07531449 59.52788775 -10.125 55.8125 C-7 54 -7 54 -5 54 C-5.495 52.02 -5.495 52.02 -6 50 C-4.35 50 -2.7 50 -1 50 C-0.67 48.68 -0.34 47.36 0 46 C0.66 46 1.32 46 2 46 C4.40656211 38.74822618 5.89644911 31.55607786 7 24 C6.34 24 5.68 24 5 24 C5.0825 23.21625 5.165 22.4325 5.25 21.625 C4.95216523 17.30639577 3.59291102 14.10875442 1.875 10.171875 C1 8 1 8 1 6 C0.01 5.67 -0.98 5.34 -2 5 C-1.34 3.35 -0.68 1.7 0 0 Z M-67 62 C-67 63.32 -67 64.64 -67 66 C-66.01 66 -65.02 66 -64 66 C-64 64.68 -64 63.36 -64 62 C-64.99 62 -65.98 62 -67 62 Z " fill="#CD0CD3" transform="translate(81,27)"/>
<path d="M0 0 C0.66 0 1.32 0 2 0 C2.05434116 2.5419589 2.0938339 5.08273682 2.125 7.625 C2.14175781 8.33785156 2.15851563 9.05070312 2.17578125 9.78515625 C2.21684602 14.2612164 1.69086567 17.77949278 0 22 C-0.66 22 -1.32 22 -2 22 C-1.91621094 22.86625 -1.83242187 23.7325 -1.74609375 24.625 C-2.28256132 31.75589204 -9.28063716 38.73283728 -14.5 43.375 C-15.64855699 44.2736395 -16.81641566 45.14802334 -18 46 C-18.721875 46.53367188 -19.44375 47.06734375 -20.1875 47.6171875 C-24.68444815 50.79239751 -28.55850079 52.81276381 -34 54 C-35.19431641 54.34144043 -36.38863281 54.68288086 -37.61914062 55.03466797 C-42.28590957 56.20256353 -46.74205749 56.25461333 -51.53125 56.1953125 C-52.84603333 56.19106766 -52.84603333 56.19106766 -54.18737793 56.18673706 C-56.95839699 56.17563492 -59.72908035 56.15054954 -62.5 56.125 C-64.3906203 56.11495729 -66.28124571 56.10583371 -68.171875 56.09765625 C-72.78137729 56.07572835 -77.39063194 56.04126845 -82 56 C-82 56.66 -82 57.32 -82 58 C-84.64 58 -87.28 58 -90 58 C-90 55.36 -90 52.72 -90 50 C-87.03 50 -84.06 50 -81 50 C-81 50.66 -81 51.32 -81 52 C-75.6103082 51.90582682 -70.22103223 51.79959751 -64.83178711 51.68261719 C-63.0017736 51.64454232 -61.17169073 51.60965362 -59.34155273 51.578125 C-56.69750315 51.53200367 -54.05392242 51.47409169 -51.41015625 51.4140625 C-50.60353043 51.40251129 -49.7969046 51.39096008 -48.96583557 51.37905884 C-36.19842213 51.05387625 -25.35845466 46.86590441 -16 38 C-15.505 37.01 -15.505 37.01 -15 36 C-14.34 36 -13.68 36 -13 36 C-12.71125 35.4225 -12.4225 34.845 -12.125 34.25 C-11.08333333 32.16666667 -10.04166667 30.08333333 -9 28 C-8.34 28 -7.68 28 -7 28 C-6.67 26.02 -6.34 24.04 -6 22 C-6.66 22 -7.32 22 -8 22 C-7.34 20.68 -6.68 19.36 -6 18 C-6 18.66 -6 19.32 -6 20 C-5.34 20 -4.68 20 -4 20 C-1.74321997 13.329015 -0.43384548 7.03128878 0 0 Z M-88 52 C-88 53.32 -88 54.64 -88 56 C-86.35 56 -84.7 56 -83 56 C-83.33 55.01 -83.66 54.02 -84 53 C-84.99 53.33 -85.98 53.66 -87 54 C-87.33 53.34 -87.66 52.68 -88 52 Z " fill="#E20CE4" transform="translate(101,49)"/>
<path d="M0 0 C2.64 0 5.28 0 8 0 C8.02689216 1.47906892 8.04634621 2.95827483 8.0625 4.4375 C8.07410156 5.26121094 8.08570313 6.08492187 8.09765625 6.93359375 C8 9 8 9 7 10 C6.9064081 11.71865409 6.88255389 13.44115744 6.88647461 15.16235352 C6.88655014 16.26341934 6.88662567 17.36448517 6.88670349 18.49891663 C6.89186478 19.6968132 6.89702606 20.89470978 6.90234375 22.12890625 C6.90446617 23.95795753 6.90446617 23.95795753 6.90663147 25.82395935 C6.91225033 29.7368307 6.92480604 33.64964581 6.9375 37.5625 C6.94251257 40.20768147 6.9470759 42.85286383 6.95117188 45.49804688 C6.96137704 51.99873726 6.98094879 58.49930533 7 65 C17.23 65.33 27.46 65.66 38 66 C37.505 67.485 37.505 67.485 37 69 C25.12 69 13.24 69 1 69 C0.979375 63.885 0.95875 58.77 0.9375 53.5 C0.928396 51.92283203 0.91929199 50.34566406 0.90991211 48.72070312 C0.89144317 39.1073221 1.28041113 29.5858648 2 20 C1.34 20 0.68 20 0 20 C0 19.34 0 18.68 0 18 C0.66 18 1.32 18 2 18 C1.7834375 16.0509375 1.7834375 16.0509375 1.5625 14.0625 C1.48128906 13.33160156 1.40007813 12.60070312 1.31640625 11.84765625 C1.18113386 9.98859771 1.18113386 9.98859771 0 9 C-0.07179964 7.48071962 -0.08392007 5.95832518 -0.0625 4.4375 C-0.05347656 3.61121094 -0.04445313 2.78492188 -0.03515625 1.93359375 C-0.02355469 1.29550781 -0.01195313 0.65742187 0 0 Z M2 2 C2 3.32 2 4.64 2 6 C3.32 6 4.64 6 6 6 C6 4.68 6 3.36 6 2 C4.68 2 3.36 2 2 2 Z " fill="#8E2BDA" transform="translate(21,3)"/>
<path d="M0 0 C6.15234375 -0.09765625 6.15234375 -0.09765625 8 0 C9 1 9 1 9.1875 4.4375 C9 8 9 8 7 10 C6.737511 12.91343568 6.737511 12.91343568 6.83984375 16.3359375 C6.85080078 17.62886719 6.86175781 18.92179687 6.87304688 20.25390625 C6.89377165 21.62761584 6.91525999 23.00131411 6.9375 24.375 C7.06688476 33.64794921 6.98251745 42.76976423 6 52 C6.66 52 7.32 52 8 52 C7.34 54.64 6.68 57.28 6 60 C5.34 60 4.68 60 4 60 C3.67 66.6 3.34 73.2 3 80 C18.51 80 34.02 80 50 80 C50 80.33 50 80.66 50 81 C34.16 81 18.32 81 2 81 C2 56.91 2 32.82 2 8 C1.34 8 0.68 8 0 8 C0 5.36 0 2.72 0 0 Z M3 2 C2.67 3.32 2.34 4.64 2 6 C3.32 6 4.64 6 6 6 C6 4.68 6 3.36 6 2 C5.01 2 4.02 2 3 2 Z " fill="#4A61E2" transform="translate(9,3)"/>
<path d="M0 0 C0.33 0.66 0.66 1.32 1 2 C1.66 2 2.32 2 3 2 C3 7.28 3 12.56 3 18 C8.71084339 18.049623 14.42155985 18.08582503 20.13256836 18.10986328 C22.07334582 18.1198898 24.0141083 18.13351443 25.95483398 18.15087891 C28.75247916 18.17527489 31.54992371 18.18651681 34.34765625 18.1953125 C35.63870018 18.21079636 35.63870018 18.21079636 36.95582581 18.22659302 C44.41879285 18.22796732 50.45037657 16.8079206 57 13 C57.66 12.01 58.32 11.02 59 10 C59.99 10 60.98 10 62 10 C62 9.34 62 8.68 62 8 C62.99 8 63.98 8 65 8 C64.72386683 12.55619725 62.64836609 15.06357653 59.86328125 18.44921875 C54.24231569 23.12746472 46.92061232 22.25951249 40.0390625 22.1953125 C38.89335785 22.1924826 37.7476532 22.18965271 36.56723022 22.18673706 C32.91971245 22.17557135 29.27244315 22.15047299 25.625 22.125 C23.14713897 22.11496555 20.66927408 22.10584051 18.19140625 22.09765625 C12.12750891 22.07564376 6.06379654 22.04113838 0 22 C0 14.74 0 7.48 0 0 Z " fill="#E309FE" transform="translate(12,61)"/>
<path d="M0 0 C9.65257227 8.42286101 16.49342863 17.15269744 19.2890625 29.86328125 C19.34717748 31.86243673 19.36297647 33.86464754 19.2890625 35.86328125 C18.6290625 35.86328125 17.9690625 35.86328125 17.2890625 35.86328125 C17.31226563 36.56195313 17.33546875 37.260625 17.359375 37.98046875 C17.37742188 38.89054687 17.39546875 39.800625 17.4140625 40.73828125 C17.43726563 41.64320312 17.46046875 42.548125 17.484375 43.48046875 C17.2890625 45.86328125 17.2890625 45.86328125 15.2890625 47.86328125 C15.2890625 43.90328125 15.2890625 39.94328125 15.2890625 35.86328125 C14.6290625 35.86328125 13.9690625 35.86328125 13.2890625 35.86328125 C13.6190625 33.22328125 13.9490625 30.58328125 14.2890625 27.86328125 C13.2990625 27.86328125 12.3090625 27.86328125 11.2890625 27.86328125 C11.2890625 27.20328125 11.2890625 26.54328125 11.2890625 25.86328125 C11.9490625 25.86328125 12.6090625 25.86328125 13.2890625 25.86328125 C10.30032958 20.17472625 7.43486279 14.80635083 3.2890625 9.86328125 C3.2890625 9.20328125 3.2890625 8.54328125 3.2890625 7.86328125 C2.3196875 7.61578125 1.3503125 7.36828125 0.3515625 7.11328125 C-0.6590625 6.70078125 -1.6696875 6.28828125 -2.7109375 5.86328125 C-3.5859375 3.73828125 -3.5859375 3.73828125 -3.7109375 1.86328125 C-4.3709375 1.78078125 -5.0309375 1.69828125 -5.7109375 1.61328125 C-8.35635556 0.95192673 -10.20008461 0.17440854 -12.5859375 -1.07421875 C-16.23759583 -2.98335571 -19.71861761 -4.13863878 -23.7109375 -5.13671875 C-23.7109375 -5.46671875 -23.7109375 -5.79671875 -23.7109375 -6.13671875 C-14.25036328 -7.83962211 -7.5101149 -5.91935569 0 0 Z " fill="#20A3BC" transform="translate(83.7109375,13.13671875)"/>
<path d="M0 0 C0.66 0 1.32 0 2 0 C6 5.41176471 6 5.41176471 6 8 C6.66 8 7.32 8 8 8 C12.25156517 21.8175868 12.77927555 34.9720009 6 48 C5.34 48 4.68 48 4 48 C4 49.98 4 51.96 4 54 C3.38125 54.144375 2.7625 54.28875 2.125 54.4375 C-0.03258322 54.93152225 -0.03258322 54.93152225 -2 56 C-2 55.34 -2 54.68 -2 54 C-2.99 54 -3.98 54 -5 54 C-5.33 52.68 -5.66 51.36 -6 50 C-4.35 50 -2.7 50 -1 50 C-0.67 48.68 -0.34 47.36 0 46 C0.66 46 1.32 46 2 46 C4.40656211 38.74822618 5.89644911 31.55607786 7 24 C6.34 24 5.68 24 5 24 C5.0825 23.21625 5.165 22.4325 5.25 21.625 C4.95216523 17.30639577 3.59291102 14.10875442 1.875 10.171875 C1 8 1 8 1 6 C0.01 5.67 -0.98 5.34 -2 5 C-1.34 3.35 -0.68 1.7 0 0 Z " fill="#7223B8" transform="translate(81,27)"/>
<path d="M0 0 C2.64 0 5.28 0 8 0 C8.02689216 1.47906892 8.04634621 2.95827483 8.0625 4.4375 C8.07410156 5.26121094 8.08570313 6.08492187 8.09765625 6.93359375 C8 9 8 9 7 10 C6.95179722 11.91606044 6.9633241 13.83368427 7 15.75 C7.06021283 22.54652272 6.62001566 29.23518624 6 36 C5.01 36 4.02 36 3 36 C3 41.28 3 46.56 3 52 C2.67 52 2.34 52 2 52 C1.06636177 41.19852381 1.06636177 30.80147619 2 20 C1.34 20 0.68 20 0 20 C0 19.34 0 18.68 0 18 C0.66 18 1.32 18 2 18 C1.7834375 16.0509375 1.7834375 16.0509375 1.5625 14.0625 C1.48128906 13.33160156 1.40007813 12.60070312 1.31640625 11.84765625 C1.18113386 9.98859771 1.18113386 9.98859771 0 9 C-0.07179964 7.48071962 -0.08392007 5.95832518 -0.0625 4.4375 C-0.05347656 3.61121094 -0.04445313 2.78492188 -0.03515625 1.93359375 C-0.02355469 1.29550781 -0.01195313 0.65742187 0 0 Z M2 2 C2 3.32 2 4.64 2 6 C3.32 6 4.64 6 6 6 C6 4.68 6 3.36 6 2 C4.68 2 3.36 2 2 2 Z " fill="#196198" transform="translate(21,3)"/>
<path d="M0 0 C0.99 0 1.98 0 3 0 C7.31744403 6.88092642 7.88648817 12.9494505 7 21 C5.9765625 23.89453125 5.9765625 23.89453125 5 26 C4.34 26 3.68 26 3 26 C2.87625 26.928125 2.87625 26.928125 2.75 27.875 C2 30 2 30 0.125 31.25 C-2 32 -2 32 -5 32 C-5 31.34 -5 30.68 -5 30 C-5.99 30 -6.98 30 -8 30 C-8 29.34 -8 28.68 -8 28 C-6.35 28 -4.7 28 -3 28 C-2.690625 27.38125 -2.38125 26.7625 -2.0625 26.125 C-1.375 24.75 -0.6875 23.375 0 22 C0.66 22 1.32 22 2 22 C1.67 20.68 1.34 19.36 1 18 C1.66 18 2.32 18 3 18 C2.67 14.7 2.34 11.4 2 8 C1.34 8 0.68 8 0 8 C-2.125 6.125 -2.125 6.125 -4 4 C-4 3.34 -4 2.68 -4 2 C-1.03 2.495 -1.03 2.495 2 3 C1.34 2.01 0.68 1.02 0 0 Z " fill="#593CCD" transform="translate(64,39)"/>
<path d="M0 0 C0.66 0 1.32 0 2 0 C2.05434116 2.5419589 2.0938339 5.08273682 2.125 7.625 C2.14175781 8.33785156 2.15851563 9.05070312 2.17578125 9.78515625 C2.21684602 14.2612164 1.69086567 17.77949278 0 22 C-0.66 22 -1.32 22 -2 22 C-1.9071875 22.85851562 -1.814375 23.71703125 -1.71875 24.6015625 C-2.07205202 28.87062853 -3.87269449 31.17962844 -6.5 34.375 C-6.92925781 34.92027344 -7.35851562 35.46554688 -7.80078125 36.02734375 C-8.85431825 37.36182394 -9.92544214 38.68238739 -11 40 C-11.33 39.34 -11.66 38.68 -12 38 C-12.99 38 -13.98 38 -15 38 C-15 37.34 -15 36.68 -15 36 C-14.34 36 -13.68 36 -13 36 C-12.71125 35.4225 -12.4225 34.845 -12.125 34.25 C-10.5625 31.125 -10.5625 31.125 -9 28 C-8.34 28 -7.68 28 -7 28 C-6.67 26.02 -6.34 24.04 -6 22 C-6.66 22 -7.32 22 -8 22 C-7.34 20.68 -6.68 19.36 -6 18 C-6 18.66 -6 19.32 -6 20 C-5.34 20 -4.68 20 -4 20 C-1.74321997 13.329015 -0.43384548 7.03128878 0 0 Z " fill="#AE12CE" transform="translate(101,49)"/>
<path d="M0 0 C0.99 0 1.98 0 3 0 C2.68106944 5.2623543 -0.21758975 8.59495319 -4 12 C-7.71702643 13.70983216 -9.88036225 14 -14 14 C-14 13.34 -14 12.68 -14 12 C-28.85 12 -43.7 12 -59 12 C-59 11.34 -59 10.68 -59 10 C-57.794646 10.01047363 -56.58929199 10.02094727 -55.34741211 10.03173828 C-50.85411577 10.06807489 -46.36083231 10.09095007 -41.86743164 10.10986328 C-39.92665418 10.1198898 -37.9858917 10.13351443 -36.04516602 10.15087891 C-33.24752084 10.17527489 -30.45007629 10.18651681 -27.65234375 10.1953125 C-26.36129982 10.21079636 -26.36129982 10.21079636 -25.04417419 10.22659302 C-17.58120715 10.22796732 -11.54962343 8.8079206 -5 5 C-4.34 4.01 -3.68 3.02 -3 2 C-2.01 2 -1.02 2 0 2 C0 1.34 0 0.68 0 0 Z " fill="#641C75" transform="translate(74,69)"/>
<path d="M0 0 C2.97 0 5.94 0 9 0 C8.67 1.32 8.34 2.64 8 4 C22.52 4 37.04 4 52 4 C47.5 6.25 47.5 6.25 43.87402344 6.22705078 C42.67323151 6.22682419 42.67323151 6.22682419 41.44818115 6.22659302 C40.59387512 6.21627045 39.73956909 6.20594788 38.859375 6.1953125 C37.97719299 6.1924826 37.09501099 6.18965271 36.18609619 6.18673706 C33.37392501 6.17555961 30.5620746 6.15045951 27.75 6.125 C25.84115044 6.11496705 23.93229588 6.10584175 22.0234375 6.09765625 C17.34883511 6.07562824 12.67447191 6.04111511 8 6 C8 6.66 8 7.32 8 8 C5.36 8 2.72 8 0 8 C0 5.36 0 2.72 0 0 Z M2 2 C2 3.32 2 4.64 2 6 C3.65 6 5.3 6 7 6 C6.67 5.01 6.34 4.02 6 3 C5.01 3.33 4.02 3.66 3 4 C2.67 3.34 2.34 2.68 2 2 Z " fill="#BF10C5" transform="translate(11,99)"/>
<path d="M0 0 C1.58965571 2.21701147 2.72327486 4.57862473 4 7 C3.47792969 6.79503906 2.95585938 6.59007812 2.41796875 6.37890625 C-3.75940618 4.11783557 -9.43878627 3.41526669 -16 3 C-16 8.28 -16 13.56 -16 19 C-16.99 19 -17.98 19 -19 19 C-19 12.73 -19 6.46 -19 0 C-16.421875 -0.185625 -13.84375 -0.37125 -11.1875 -0.5625 C-9.97549927 -0.65446655 -9.97549927 -0.65446655 -8.73901367 -0.74829102 C-5.48602054 -0.9666264 -3.12135522 -1.04045174 0 0 Z " fill="#4469D3" transform="translate(63,36)"/>
<path d="M0 0 C0.66 0 1.32 0 2 0 C6 5.41176471 6 5.41176471 6 8 C6.66 8 7.32 8 8 8 C9.29243536 12.1196377 10.26252625 15.66831683 10 20 C9.34 20 8.68 20 8 20 C8.01160156 20.79664062 8.02320312 21.59328125 8.03515625 22.4140625 C8.12478032 32.93848858 8.12478032 32.93848858 7 38 C6.34 38 5.68 38 5 38 C5.66 33.38 6.32 28.76 7 24 C6.34 24 5.68 24 5 24 C5.0825 23.21625 5.165 22.4325 5.25 21.625 C4.95216523 17.30639577 3.59291102 14.10875442 1.875 10.171875 C1 8 1 8 1 6 C0.01 5.67 -0.98 5.34 -2 5 C-1.34 3.35 -0.68 1.7 0 0 Z " fill="#227DBB" transform="translate(81,27)"/>
<path d="M0 0 C4.4584922 -0.05371677 8.91634389 -0.09353771 13.375 -0.125 C15.28152344 -0.15013672 15.28152344 -0.15013672 17.2265625 -0.17578125 C18.43828125 -0.18222656 19.65 -0.18867188 20.8984375 -0.1953125 C22.01911621 -0.20578613 23.13979492 -0.21625977 24.29443359 -0.22705078 C27 0 27 0 29 2 C28.67 2.66 28.34 3.32 28 4 C15.13 3.505 15.13 3.505 2 3 C2 8.28 2 13.56 2 19 C1.34 19 0.68 19 0 19 C0 12.73 0 6.46 0 0 Z " fill="#4397D6" transform="translate(33,24)"/>
<path d="M0 0 C4.35994067 -0.024727 8.71984414 -0.04287281 13.07983398 -0.05493164 C14.56291413 -0.05995903 16.04598933 -0.06678185 17.52905273 -0.07543945 C19.66130801 -0.08757482 21.79349773 -0.09324425 23.92578125 -0.09765625 C25.20880127 -0.10289307 26.49182129 -0.10812988 27.8137207 -0.11352539 C31 0 31 0 34 1 C34 1.66 34 2.32 34 3 C23.44 3 12.88 3 2 3 C2 5.64 2 8.28 2 11 C1.34 11 0.68 11 0 11 C0 7.37 0 3.74 0 0 Z " fill="#21DAE9" transform="translate(33,4)"/>
<path d="M0 0 C4.75 0.875 4.75 0.875 7 2 C7 2.66 7 3.32 7 4 C7.598125 4.28875 8.19625 4.5775 8.8125 4.875 C11 6 11 6 14 8 C14 8.66 14 9.32 14 10 C14.66 10 15.32 10 16 10 C16.33 12.31 16.66 14.62 17 17 C15.68 17 14.36 17 13 17 C11.3671875 15.3203125 11.3671875 15.3203125 9.875 13.125 C8.31992911 10.87699597 6.93794746 8.93794746 5 7 C4.05125 6.855625 3.1025 6.71125 2.125 6.5625 C-1.1261174 5.97729887 -2.56431758 5.15464214 -5 3 C-3.68 3 -2.36 3 -1 3 C-0.67 2.01 -0.34 1.02 0 0 Z " fill="#2070B3" transform="translate(62,25)"/>
<path d="M0 0 C1.98 0 3.96 0 6 0 C5.34 2.64 4.68 5.28 4 8 C3.34 8 2.68 8 2 8 C1.67 14.6 1.34 21.2 1 28 C16.51 28 32.02 28 48 28 C48 28.33 48 28.66 48 29 C32.16 29 16.32 29 0 29 C0 19.43 0 9.86 0 0 Z " fill="#6C279B" transform="translate(11,55)"/>
<path d="M0 0 C2 1 2 1 3.0703125 3.51171875 C3.41835937 4.55972656 3.76640625 5.60773437 4.125 6.6875 C4.47820312 7.72261719 4.83140625 8.75773437 5.1953125 9.82421875 C6.00508859 13.02008266 6.14757228 15.71897631 6 19 C5.34 19 4.68 19 4 19 C4.02320312 19.69867188 4.04640625 20.39734375 4.0703125 21.1171875 C4.08835937 22.02726562 4.10640625 22.93734375 4.125 23.875 C4.14820312 24.77992187 4.17140625 25.68484375 4.1953125 26.6171875 C4 29 4 29 2 31 C2 27.04 2 23.08 2 19 C1.34 19 0.68 19 0 19 C0.33 16.36 0.66 13.72 1 11 C0.01 11 -0.98 11 -2 11 C-2 10.34 -2 9.68 -2 9 C-1.34 9 -0.68 9 0 9 C-0.515625 8.05125 -1.03125 7.1025 -1.5625 6.125 C-2.036875 5.09375 -2.51125 4.0625 -3 3 C-2 1 -2 1 0 0 Z " fill="#395DAA" transform="translate(97,30)"/>
<path d="M0 0 C3.17836482 0.48157043 5.64488771 1.27796884 8.625 2.5625 C11.84861488 4.19593103 11.84861488 4.19593103 15 4 C15 5.32 15 6.64 15 8 C15.33 8.33 15.66 8.66 16 9 C16.04063832 10.66617115 16.042721 12.33388095 16 14 C15.01 14 14.02 14 13 14 C12.38125 13.195625 11.7625 12.39125 11.125 11.5625 C9.22701675 8.789326 9.22701675 8.789326 6.25 8.1875 C5.5075 8.125625 4.765 8.06375 4 8 C4 7.34 4 6.68 4 6 C3.34 6 2.68 6 2 6 C2 5.34 2 4.68 2 4 C-0.64 3.67 -3.28 3.34 -6 3 C-6 2.67 -6 2.34 -6 2 C-4.02 2 -2.04 2 0 2 C0 1.34 0 0.68 0 0 Z " fill="#268DA6" transform="translate(65,17)"/>
<path d="M0 0 C6.15234375 -0.09765625 6.15234375 -0.09765625 8 0 C9 1 9 1 9.25 4.4375 C9.1675 5.613125 9.085 6.78875 9 8 C8.01 8.66 7.02 9.32 6 10 C6 9.34 6 8.68 6 8 C5.01 8 4.02 8 3 8 C3 22.52 3 37.04 3 52 C2.67 52 2.34 52 2 52 C2 37.48 2 22.96 2 8 C1.34 8 0.68 8 0 8 C0 5.36 0 2.72 0 0 Z M3 2 C2.67 3.32 2.34 4.64 2 6 C3.32 6 4.64 6 6 6 C6 4.68 6 3.36 6 2 C5.01 2 4.02 2 3 2 Z " fill="#216986" transform="translate(9,3)"/>
<path d="M0 0 C1.65 0 3.3 0 5 0 C4.67 0.66 4.34 1.32 4 2 C3.95311509 3.93693264 3.96252213 5.87536251 4 7.8125 C4.06049284 14.58769778 3.61807183 21.2563949 3 28 C2.01 28 1.02 28 0 28 C0 18.76 0 9.52 0 0 Z " fill="#299FD0" transform="translate(24,11)"/>
<path d="M0 0 C0 1.98 0 3.96 0 6 C-0.886875 6.103125 -1.77375 6.20625 -2.6875 6.3125 C-6.01382769 6.79369796 -6.01382769 6.79369796 -8.5 8.625 C-11.78513968 10.43182682 -13.45155682 10.0028209 -17 9 C-17.99 8.34 -18.98 7.68 -20 7 C-18.2365625 6.38125 -18.2365625 6.38125 -16.4375 5.75 C-13.52208642 4.67346036 -10.95319119 3.44693662 -8.3125 1.8125 C-5.08004099 0.04379601 -3.58587035 -0.43465095 0 0 Z " fill="#9912A7" transform="translate(79,81)"/>
<path d="M0 0 C0.33 0.66 0.66 1.32 1 2 C1.66 2 2.32 2 3 2 C3 7.94 3 13.88 3 20 C4.32 20 5.64 20 7 20 C7 20.66 7 21.32 7 22 C4.69 22 2.38 22 0 22 C0 14.74 0 7.48 0 0 Z " fill="#BB1DE6" transform="translate(12,61)"/>
<path d="M0 0 C0.66 0 1.32 0 2 0 C2.144375 0.94875 2.28875 1.8975 2.4375 2.875 C2.82935399 5.8934494 2.82935399 5.8934494 4 8 C3.34 8 2.68 8 2 8 C1.9175 8.61875 1.835 9.2375 1.75 9.875 C1 12 1 12 -0.875 13.25 C-3 14 -3 14 -6 14 C-6 13.34 -6 12.68 -6 12 C-6.99 12 -7.98 12 -9 12 C-9 11.34 -9 10.68 -9 10 C-7.35 10 -5.7 10 -4 10 C-3.690625 9.38125 -3.38125 8.7625 -3.0625 8.125 C-2.375 6.75 -1.6875 5.375 -1 4 C-0.34 4 0.32 4 1 4 C0.67 2.68 0.34 1.36 0 0 Z " fill="#521D8D" transform="translate(65,57)"/>
<path d="M0 0 C0.99 0 1.98 0 3 0 C3.33 9.9 3.66 19.8 4 30 C3.34 30 2.68 30 2 30 C2 25.38 2 20.76 2 16 C1.34 16 0.68 16 0 16 C0 10.72 0 5.44 0 0 Z " fill="#5452D8" transform="translate(24,39)"/>
<path d="M0 0 C8.91 0 17.82 0 27 0 C26.67 0.99 26.34 1.98 26 3 C13.13 2.505 13.13 2.505 0 2 C0 1.34 0 0.68 0 0 Z " fill="#21BCF6" transform="translate(35,25)"/>
<path d="M0 0 C2.97 0 5.94 0 9 0 C9 2.64 9 5.28 9 8 C6.03 8 3.06 8 0 8 C0 5.36 0 2.72 0 0 Z M3 2 C3 3.32 3 4.64 3 6 C3.99 6 4.98 6 6 6 C6 4.68 6 3.36 6 2 C5.01 2 4.02 2 3 2 Z " fill="#7F188C" transform="translate(11,87)"/>
<path d="M0 0 C0.99 0 1.98 0 3 0 C3.02685095 2.47923801 3.04676547 4.9581884 3.0625 7.4375 C3.07087891 8.14455078 3.07925781 8.85160156 3.08789062 9.58007812 C3.09653588 11.38693559 3.05220011 13.19387603 3 15 C2.67 15.33 2.34 15.66 2 16 C1.63239269 18.32817964 1.29758419 20.6618385 1 23 C0.67 23 0.34 23 0 23 C0 15.41 0 7.82 0 0 Z " fill="#2AD6E6" transform="translate(12,11)"/>
<path d="M0 0 C2.97 0 5.94 0 9 0 C8.67 2.64 8.34 5.28 8 8 C5.36 8 2.72 8 0 8 C0 5.36 0 2.72 0 0 Z M2 2 C2 3.32 2 4.64 2 6 C3.65 6 5.3 6 7 6 C6.67 5.01 6.34 4.02 6 3 C5.01 3.33 4.02 3.66 3 4 C2.67 3.34 2.34 2.68 2 2 Z " fill="#9420A0" transform="translate(11,99)"/>
<path d="M0 0 C0.99 0 1.98 0 3 0 C3.08097324 2.27024968 3.13917704 4.54132075 3.1875 6.8125 C3.22230469 8.07707031 3.25710937 9.34164062 3.29296875 10.64453125 C3 14 3 14 1.55078125 15.94921875 C0 17 0 17 -1 17 C-0.67 11.39 -0.34 5.78 0 0 Z " fill="#653FD1" transform="translate(89,47)"/>
<path d="M0 0 C4.75 0.875 4.75 0.875 7 2 C7 2.66 7 3.32 7 4 C7.99 4.33 8.98 4.66 10 5 C9.01 5.33 8.02 5.66 7 6 C6.67 6.66 6.34 7.32 6 8 C1.69159287 6.92289822 -1.63576723 5.96052484 -5 3 C-3.68 3 -2.36 3 -1 3 C-0.67 2.01 -0.34 1.02 0 0 Z " fill="#257BA7" transform="translate(62,25)"/>
<path d="M0 0 C0.66 0.66 1.32 1.32 2 2 C1.34 2 0.68 2 0 2 C0 2.66 0 3.32 0 4 C0.99 4 1.98 4 3 4 C4.6875 6 4.6875 6 6 8 C3.11537821 7.37958245 0.77942186 6.46139876 -1.8125 5.0625 C-5.48446954 3.16795662 -8.996992 2.000752 -13 1 C-13 0.67 -13 0.34 -13 0 C-8.36929583 -0.83352675 -4.58637747 -1.17325935 0 0 Z " fill="#2998A4" transform="translate(73,7)"/>
<path d="M0 0 C0.66 0 1.32 0 2 0 C2 0.66 2 1.32 2 2 C2.66 2 3.32 2 4 2 C4 3.98 4 5.96 4 8 C3.38125 8.144375 2.7625 8.28875 2.125 8.4375 C-0.03258322 8.93152225 -0.03258322 8.93152225 -2 10 C-2 9.34 -2 8.68 -2 8 C-2.99 8 -3.98 8 -5 8 C-5.33 6.68 -5.66 5.36 -6 4 C-4.35 4 -2.7 4 -1 4 C-0.67 2.68 -0.34 1.36 0 0 Z " fill="#771699" transform="translate(81,73)"/>
<path d="M0 0 C0.99 0 1.98 0 3 0 C2.45276317 3.37462715 1.9451 5.08235 0 8 C-2.625 8.1875 -2.625 8.1875 -5 8 C-5 8.66 -5 9.32 -5 10 C-5.66 10 -6.32 10 -7 10 C-6.40353695 6.65980694 -5.31705841 4.49529367 -3 2 C-2.01 2 -1.02 2 0 2 C0 1.34 0 0.68 0 0 Z " fill="#9417C6" transform="translate(74,69)"/>
<path d="M0 0 C2.64 0 5.28 0 8 0 C8 2.64 8 5.28 8 8 C5.36 8 2.72 8 0 8 C0 5.36 0 2.72 0 0 Z M2 2 C2 3.32 2 4.64 2 6 C3.32 6 4.64 6 6 6 C6 4.68 6 3.36 6 2 C4.68 2 3.36 2 2 2 Z " fill="#3A8C92" transform="translate(21,3)"/>
<path d="M0 0 C0 0.66 0 1.32 0 2 C-10.56 1.67 -21.12 1.34 -32 1 C-32 0.67 -32 0.34 -32 0 C-28.54227657 -0.20005983 -25.08383018 -0.38267635 -21.625 -0.5625 C-20.65949219 -0.61857422 -19.69398437 -0.67464844 -18.69921875 -0.73242188 C-12.3574194 -1.05163996 -6.29611775 -0.82870943 0 0 Z " fill="#30D0F2" transform="translate(65,17)"/>
<path d="M0 0 C2.1519437 3.22791555 2.20086443 4.28400809 2 8 C1.34 8 0.68 8 0 8 C0.01160156 8.79664063 0.02320312 9.59328125 0.03515625 10.4140625 C0.12478032 20.93848858 0.12478032 20.93848858 -1 26 C-1.66 26 -2.32 26 -3 26 C-2.34 21.38 -1.68 16.76 -1 12 C-1.66 12 -2.32 12 -3 12 C-2.67 10.02 -2.34 8.04 -2 6 C-1.01 6.33 -0.02 6.66 1 7 C0.67 4.69 0.34 2.38 0 0 Z " fill="#382F83" transform="translate(89,39)"/>
<path d="M0 0 C0.99 0 1.98 0 3 0 C3.33 0.66 3.66 1.32 4 2 C4.66 2.33 5.32 2.66 6 3 C4.70990357 3.50403768 3.41786211 4.00309926 2.125 4.5 C1.40570313 4.7784375 0.68640625 5.056875 -0.0546875 5.34375 C-2 6 -2 6 -4 6 C-4 5.34 -4 4.68 -4 4 C-5.98 4 -7.96 4 -10 4 C-7.24072656 1.24072656 -4.78845948 1.48216757 -1 1 C-0.67 0.67 -0.34 0.34 0 0 Z " fill="#BB11C3" transform="translate(69,97)"/>
<path d="M0 0 C0.66 0 1.32 0 2 0 C2.05382106 2.62527189 2.09358313 5.24944713 2.125 7.875 C2.14175781 8.62136719 2.15851563 9.36773437 2.17578125 10.13671875 C2.1933959 12.09194461 2.10320189 14.04742021 2 16 C1.34 16.66 0.68 17.32 0 18 C-1.03863773 11.76817361 -0.83288874 6.25307239 0 0 Z " fill="#6D41EA" transform="translate(101,49)"/>
<path d="M0 0 C2 2 2 2 2.1953125 3.9453125 C2.13020833 5.96354167 2.06510417 7.98177083 2 10 C1.34 10 0.68 10 0 10 C0 11.32 0 12.64 0 14 C-0.66 14 -1.32 14 -2 14 C-2.1799928 8.78020872 -1.97094808 4.92737019 0 0 Z " fill="#8F20DE" transform="translate(99,61)"/>
<path d="M0 0 C0.33 0 0.66 0 1 0 C1 1.98 1 3.96 1 6 C1.66 6 2.32 6 3 6 C2.34 7.98 1.68 9.96 1 12 C0.34 12 -0.32 12 -1 12 C-1 11.34 -1 10.68 -1 10 C-1.66 10 -2.32 10 -3 10 C-2.01 6.7 -1.02 3.4 0 0 Z " fill="#6922B4" transform="translate(78,59)"/>
<path d="M0 0 C2.64443027 -0.3888868 4.38826202 -0.39540909 6.66796875 1.078125 C8.16931734 2.31914474 9.59025705 3.65582649 11 5 C11 5.33 11 5.66 11 6 C8.69 5.67 6.38 5.34 4 5 C3.67 4.01 3.34 3.02 3 2 C2.01 2 1.02 2 0 2 C0 1.34 0 0.68 0 0 Z " fill="#21D4E3" transform="translate(73,9)"/>
<path d="M0 0 C0.99 0 1.98 0 3 0 C3.66 1.98 4.32 3.96 5 6 C4.01 6.33 3.02 6.66 2 7 C1.01 7.495 1.01 7.495 0 8 C-1.37562854 6.71034824 -2.70766393 5.37310707 -4 4 C-4 3.34 -4 2.68 -4 2 C-1.03 2.495 -1.03 2.495 2 3 C1.34 2.01 0.68 1.02 0 0 Z " fill="#1E3582" transform="translate(64,39)"/>
<path d="M0 0 C0.66 0 1.32 0 2 0 C2.66 2.97 3.32 5.94 4 9 C2.68 8.67 1.36 8.34 0 8 C-0.38063221 5.6739143 -0.71269945 3.33944736 -1 1 C-0.67 0.67 -0.34 0.34 0 0 Z " fill="#475FD1" transform="translate(86,37)"/>
<path d="M0 0 C0.33 0 0.66 0 1 0 C0.67 5.28 0.34 10.56 0 16 C-0.66 16 -1.32 16 -2 16 C-2.05423638 14.08364783 -2.09289963 12.16685075 -2.125 10.25 C-2.14820313 9.18265625 -2.17140625 8.1153125 -2.1953125 7.015625 C-2.00487687 4.07529894 -1.52670104 2.47638122 0 0 Z " fill="#267FC2" transform="translate(15,23)"/>
<path d="M0 0 C-0.75 1.9375 -0.75 1.9375 -2 4 C-4.125 4.75 -4.125 4.75 -6 5 C-6 4.34 -6 3.68 -6 3 C-6.99 3 -7.98 3 -9 3 C-9 2.34 -9 1.68 -9 1 C-5.846632 0.29925156 -3.27275026 0 0 0 Z " fill="#7525C1" transform="translate(65,66)"/>
<path d="M0 0 C0.66 0 1.32 0 2 0 C2 1.98 2 3.96 2 6 C1.34 6 0.68 6 0 6 C0.02320312 6.69867188 0.04640625 7.39734375 0.0703125 8.1171875 C0.08835937 9.02726562 0.10640625 9.93734375 0.125 10.875 C0.14820312 11.77992187 0.17140625 12.68484375 0.1953125 13.6171875 C0 16 0 16 -2 18 C-1.85860519 15.74971671 -1.71171997 13.49977794 -1.5625 11.25 C-1.48128906 9.99703125 -1.40007812 8.7440625 -1.31640625 7.453125 C-1.07484478 4.81682447 -0.75716066 2.51962706 0 0 Z " fill="#514EBA" transform="translate(101,43)"/>
<path d="M0 0 C0.33 0.66 0.66 1.32 1 2 C1.66 2 2.32 2 3 2 C3 3.98 3 5.96 3 8 C3.66 8 4.32 8 5 8 C4.67 8.99 4.34 9.98 4 11 C2.68 10.67 1.36 10.34 0 10 C0.33 8.02 0.66 6.04 1 4 C0.34 4 -0.32 4 -1 4 C-0.67 2.68 -0.34 1.36 0 0 Z " fill="#5A1975" transform="translate(94,67)"/>
<path d="M0 0 C0.33 0.66 0.66 1.32 1 2 C1.66 2 2.32 2 3 2 C3 4.64 3 7.28 3 10 C2.01 10 1.02 10 0 10 C0 6.7 0 3.4 0 0 Z " fill="#952BE9" transform="translate(12,61)"/>
<path d="M0 0 C5.57142857 5.14285714 5.57142857 5.14285714 6 9 C5.01 9.495 5.01 9.495 4 10 C3.34 9.67 2.68 9.34 2 9 C2 7.35 2 5.7 2 4 C1.34 4 0.68 4 0 4 C0 2.68 0 1.36 0 0 Z " fill="#22B2E2" transform="translate(91,22)"/>
<path d="M0 0 C1.66611905 -0.042721 3.33382885 -0.04063832 5 0 C6 1 6 1 6.0625 3.5625 C6.041875 4.366875 6.02125 5.17125 6 6 C5.01 6 4.02 6 3 6 C0 2.66666667 0 2.66666667 0 0 Z " fill="#2699CC" transform="translate(75,25)"/>
<path d="M0 0 C2.2477975 2.05233685 3.0022242 3.00667261 4 6 C4.33 6.66 4.66 7.32 5 8 C4.34 8.66 3.68 9.32 3 10 C-2 4.25 -2 4.25 -2 2 C-1.34 2 -0.68 2 0 2 C0 1.34 0 0.68 0 0 Z " fill="#2494B2" transform="translate(89,19)"/>
<path d="M0 0 C1.98 0 3.96 0 6 0 C5.3125 1.9375 5.3125 1.9375 4 4 C1.375 4.75 1.375 4.75 -1 5 C-0.67 3.35 -0.34 1.7 0 0 Z " fill="#D10DD8" transform="translate(73,95)"/>
<path d="M0 0 C1.13732426 3.40401948 0.83989957 5.77456664 0.0625 9.25 C-0.13214844 10.14203125 -0.32679687 11.0340625 -0.52734375 11.953125 C-0.68332031 12.62859375 -0.83929688 13.3040625 -1 14 C-1.33 12.68 -1.66 11.36 -2 10 C-2.66 10 -3.32 10 -4 10 C-2.8905928 6.51329166 -1.73662334 3.22515763 0 0 Z " fill="#203888" transform="translate(101,39)"/>
<path d="M0 0 C-0.3125 1.875 -0.3125 1.875 -1 4 C-1.99 4.66 -2.98 5.32 -4 6 C-4 5.34 -4 4.68 -4 4 C-4.99 3.67 -5.98 3.34 -7 3 C-4.49955934 -0.00052879 -4.2621484 0 0 0 Z " fill="#BB18BF" transform="translate(89,87)"/>
<path d="M0 0 C0.66 0.33 1.32 0.66 2 1 C2 2.98 2 4.96 2 7 C1.01 7 0.02 7 -1 7 C-1.66 5.02 -2.32 3.04 -3 1 C-2.01 0.67 -1.02 0.34 0 0 Z " fill="#2E78C9" transform="translate(97,30)"/>
<path d="M0 0 C0 0.33 0 0.66 0 1 C-6.435 1.495 -6.435 1.495 -13 2 C-9.02291084 -1.97708916 -5.28744325 -0.91513441 0 0 Z " fill="#EA10F1" transform="translate(64,90)"/>
<path d="M0 0 C0.33 0 0.66 0 1 0 C1.09765625 6.15234375 1.09765625 6.15234375 1 8 C0.67 8.33 0.34 8.66 0 9 C-0.36760731 11.32817964 -0.70241581 13.6618385 -1 16 C-1.33 16 -1.66 16 -2 16 C-2 12.37 -2 8.74 -2 5 C-1.34 5 -0.68 5 0 5 C0 3.35 0 1.7 0 0 Z " fill="#31B4F1" transform="translate(14,18)"/>
<path d="M0 0 C0 1.32 0 2.64 0 4 C-1.32 4 -2.64 4 -4 4 C-4 3.34 -4 2.68 -4 2 C-4.99 1.67 -5.98 1.34 -7 1 C-4.53721199 -0.231394 -2.7204945 -0.07159196 0 0 Z " fill="#A417C3" transform="translate(64,79)"/>
<path d="M0 0 C0.66 0 1.32 0 2 0 C2.33 2.31 2.66 4.62 3 7 C2.01 7.495 2.01 7.495 1 8 C0.01 6.02 -0.98 4.04 -2 2 C-1.34 2 -0.68 2 0 2 C0 1.34 0 0.68 0 0 Z " fill="#436FD2" transform="translate(76,35)"/>
<path d="M0 0 C0.66 0.33 1.32 0.66 2 1 C2 1.66 2 2.32 2 3 C2.66 3 3.32 3 4 3 C3.67 4.32 3.34 5.64 3 7 C3 6.34 3 5.68 3 5 C1.02 5.99 1.02 5.99 -1 7 C-1.33 5.68 -1.66 4.36 -2 3 C-1.34 3 -0.68 3 0 3 C0 2.01 0 1.02 0 0 Z " fill="#2D5EA2" transform="translate(85,32)"/>
<path d="M0 0 C-0.33 1.98 -0.66 3.96 -1 6 C-1.66 5.34 -2.32 4.68 -3 4 C-3.99 4 -4.98 4 -6 4 C-6.33 3.01 -6.66 2.02 -7 1 C-4.50935112 0.31292445 -2.62113708 0 0 0 Z " fill="#5D1560" transform="translate(20,99)"/>
<path d="M0 0 C3.34373475 0.55728913 6.03312999 1.35173889 9 3 C4.94568308 4.15837626 2.78187881 3.83691257 -1 2 C-0.67 1.34 -0.34 0.68 0 0 Z " fill="#99159E" transform="translate(60,87)"/>
<path d="M0 0 C-0.33 1.32 -0.66 2.64 -1 4 C-3.31 4 -5.62 4 -8 4 C-8.33 3.34 -8.66 2.68 -9 2 C-2.25 0 -2.25 0 0 0 Z " fill="#CB10D7" transform="translate(73,85)"/>
<path d="M0 0 C3.91402949 1.26941497 5.79072873 2.51167694 8 6 C5.03 5.01 2.06 4.02 -1 3 C-0.67 2.01 -0.34 1.02 0 0 Z " fill="#4B7BDC" transform="translate(59,37)"/>
<path d="M0 0 C1.98 0 3.96 0 6 0 C5.67 1.32 5.34 2.64 5 4 C3.35 4.33 1.7 4.66 0 5 C0 3.35 0 1.7 0 0 Z " fill="#24687E" transform="translate(74,21)"/>
<path d="M0 0 C0.98120464 3.05263664 0.98120464 4.94736336 0 8 C-0.33 7.34 -0.66 6.68 -1 6 C-1.99 6 -2.98 6 -4 6 C-4 5.34 -4 4.68 -4 4 C-3.34 4 -2.68 4 -2 4 C-1.34 2.68 -0.68 1.36 0 0 Z " fill="#8F11A1" transform="translate(90,81)"/>
<path d="M0 0 C1.32 0.33 2.64 0.66 4 1 C4 2.98 4 4.96 4 7 C3.34 7 2.68 7 2 7 C1.34 4.69 0.68 2.38 0 0 Z " fill="#4F60E2" transform="translate(65,44)"/>
<path d="M0 0 C0 1.65 0 3.3 0 5 C-1.32 5 -2.64 5 -4 5 C-4 3.68 -4 2.36 -4 1 C-1 0 -1 0 0 0 Z " fill="#991AD2" transform="translate(87,70)"/>
<path d="M0 0 C0.66 0 1.32 0 2 0 C2 1.32 2 2.64 2 4 C1.34 4 0.68 4 0 4 C0 2.68 0 1.36 0 0 Z " fill="#010B23" transform="translate(73,53)"/>
<path d="M0 0 C0.66 0 1.32 0 2 0 C2 1.32 2 2.64 2 4 C1.34 4 0.68 4 0 4 C0 2.68 0 1.36 0 0 Z " fill="#070F0A" transform="translate(19,13)"/>
<path d="M0 0 C0.99 0 1.98 0 3 0 C3 0.66 3 1.32 3 2 C2.01 2 1.02 2 0 2 C0 1.34 0 0.68 0 0 Z " fill="#150508" transform="translate(74,91)"/>
<path d="M0 0 C0.99 0.33 1.98 0.66 3 1 C2.01 1.33 1.02 1.66 0 2 C0 1.34 0 0.68 0 0 Z " fill="#2B0048" transform="translate(51,97)"/>
<path d="M0 0 C0.33 0.99 0.66 1.98 1 3 C0.34 3 -0.32 3 -1 3 C-0.67 2.01 -0.34 1.02 0 0 Z " fill="#1B0345" transform="translate(68,92)"/>
<path d="M0 0 C0.66 0 1.32 0 2 0 C2 0.66 2 1.32 2 2 C1.34 2 0.68 2 0 2 C0 1.34 0 0.68 0 0 Z " fill="#030D05" transform="translate(19,73)"/>
<path d="M0 0 C0.66 0 1.32 0 2 0 C2 0.66 2 1.32 2 2 C1.34 2 0.68 2 0 2 C0 1.34 0 0.68 0 0 Z " fill="#001301" transform="translate(89,71)"/>
<path d="M0 0 C0.66 0 1.32 0 2 0 C2 0.66 2 1.32 2 2 C1.34 2 0.68 2 0 2 C0 1.34 0 0.68 0 0 Z " fill="#060F06" transform="translate(67,71)"/>
<path d="M0 0 C1 4 1 4 1 4 Z " fill="#000D1B" transform="translate(21,59)"/>
<path d="M0 0 C0.66 0 1.32 0 2 0 C2 0.66 2 1.32 2 2 C1.34 2 0.68 2 0 2 C0 1.34 0 0.68 0 0 Z " fill="#170708" transform="translate(87,31)"/>
<path d="M0 0 C0.66 0 1.32 0 2 0 C2 0.66 2 1.32 2 2 C1.34 2 0.68 2 0 2 C0 1.34 0 0.68 0 0 Z " fill="#011100" transform="translate(83,21)"/>
<path d="M0 0 C0.66 0 1.32 0 2 0 C1.67 0.66 1.34 1.32 1 2 C0.67 1.34 0.34 0.68 0 0 Z " fill="#09093B" transform="translate(65,83)"/>
<path d="M0 0 C0.99 0.495 0.99 0.495 2 1 C1.01 1.495 1.01 1.495 0 2 C0 1.34 0 0.68 0 0 Z " fill="#000637" transform="translate(73,43)"/>
<path d="M0 0 C0.99 0.495 0.99 0.495 2 1 C1.01 1.495 1.01 1.495 0 2 C0 1.34 0 0.68 0 0 Z " fill="#22011F" transform="translate(81,23)"/>
<path d="M0 0 C0.66 0.66 1.32 1.32 2 2 C1.34 2 0.68 2 0 2 C0 1.34 0 0.68 0 0 Z " fill="#01092D" transform="translate(17,19)"/>
<path d="" fill="#000D15" transform="translate(0,0)"/>
<path d="" fill="#06083B" transform="translate(0,0)"/>
<path d="M0 0 C2 1 2 1 2 1 Z " fill="#1B0035" transform="translate(79,35)"/>
<path d="" fill="#260146" transform="translate(0,0)"/>
<path d="" fill="#151200" transform="translate(0,0)"/>
<path d="" fill="#010E1E" transform="translate(0,0)"/>
<path d="" fill="#001216" transform="translate(0,0)"/>
<path d="" fill="#1C1F42" transform="translate(0,0)"/>
</svg>
